<?xml version="1.0" standalone="no"?>
<!DOCTYPE svg PUBLIC "-//W3C//DTD SVG 20010904//EN"
 "http://www.w3.org/TR/2001/REC-SVG-20010904/DTD/svg10.dtd">
<svg version="1.0" xmlns="http://www.w3.org/2000/svg"
 width="960.000000pt" height="960.000000pt" viewBox="0 0 960.000000 960.000000"
 preserveAspectRatio="xMidYMid meet">

<g transform="translate(0.000000,960.000000) scale(0.100000,-0.100000)"
fill="#000000" stroke="none">
<path d="M2895 5919 c-50 -44 -61 -97 -78 -357 -9 -123 -17 -225 -19 -227 -1
-2 -57 12 -123 31 -538 155 -868 220 -1085 212 -132 -5 -181 -22 -289 -101
-66 -49 -72 -51 -238 -92 -195 -47 -298 -92 -358 -155 -135 -142 183 -440 685
-643 332 -135 909 -282 1810 -461 534 -106 743 -140 1032 -166 104 -9 129 -15
213 -53 95 -42 96 -42 60 -48 -48 -8 -85 -37 -115 -90 -21 -37 -25 -57 -25
-129 0 -74 3 -89 24 -119 49 -68 239 -132 401 -134 95 -1 140 14 185 64 41 46
55 75 64 140 l6 46 162 -71 163 -71 -45 -7 c-91 -13 -142 -82 -151 -205 -5
-58 -2 -75 18 -113 20 -38 34 -51 98 -83 94 -47 256 -81 347 -73 64 5 126 30
155 63 30 33 58 107 58 156 0 26 2 47 5 47 3 0 175 -74 382 -164 502 -218 568
-239 753 -240 109 -1 225 24 218 46 -2 6 -426 224 -941 485 -516 262 -936 478
-933 480 6 6 447 -21 866 -53 537 -40 796 -53 1343 -64 l522 -12 255 -84 c140
-46 267 -84 282 -84 28 0 78 19 78 29 0 3 -70 44 -155 91 l-155 85 60 18 60
18 0 64 c0 36 1 68 3 72 1 4 -51 39 -115 77 -65 39 -118 75 -118 80 0 5 163
263 361 573 199 311 357 568 353 573 -5 4 -113 24 -241 44 l-231 37 -727 -472
c-640 -415 -734 -473 -786 -484 -57 -12 -76 -9 -1601 296 -1522 303 -1546 308
-1748 375 -113 37 -210 72 -217 78 -10 10 -126 213 -387 678 -47 86 -77 128
-88 128 -10 0 -33 -14 -53 -31z"/>
</g>
</svg>
